<?xml version="1.0" encoding="UTF-8"?>
<svg id="Capa_1" data-name="Capa 1" xmlns="http://www.w3.org/2000/svg" viewBox="0 0 800 783.94">
  <defs>
    <style>
      .cls-1 {
        stroke: #e52325;
        stroke-linecap: round;
        stroke-miterlimit: 10;
        stroke-width: 32px;
      }
    </style>
  </defs>
  <path d="m783.89,158.69c-4.63-2.53-9.74-3.79-14.83-3.79-5.83,0-11.65,1.64-16.73,4.9l-163.7,99.79v-57.1c0-27.48-22.28-49.75-49.75-49.75H49.75c-27.48,0-49.75,22.28-49.75,49.75v378.95c0,27.48,22.28,49.75,49.75,49.75h489.11c27.47,0,49.75-22.28,49.75-49.75v-57.11l163.7,99.79c5.08,3.26,10.89,4.9,16.73,4.9,5.09,0,10.2-1.26,14.84-3.79,9.93-5.42,16.11-15.85,16.11-27.18V185.87c0-11.33-6.18-21.76-16.11-27.18Zm-67.66,345.32l-127.61-77.79v-68.5l127.61-77.79v224.09Z"/>
  <line class="cls-1" x1="25" y1="16" x2="776" y2="767.94"/>
</svg>